<?xml version="1.0" encoding="utf-8"?>
<!-- Generator: Adobe Illustrator 16.0.0, SVG Export Plug-In . SVG Version: 6.00 Build 0)  -->
<!DOCTYPE svg PUBLIC "-//W3C//DTD SVG 1.1//EN" "http://www.w3.org/Graphics/SVG/1.1/DTD/svg11.dtd">
<svg version="1.1" id="Layer_1" xmlns="http://www.w3.org/2000/svg" xmlns:xlink="http://www.w3.org/1999/xlink" x="0px" y="0px"
	 width="28.459px" height="28.459px" viewBox="-13.625 -4.459 28.459 28.459" enable-background="new -13.625 -4.459 28.459 28.459"
	 xml:space="preserve">
<text transform="matrix(1 0 0 1 407.3203 293.1816)" font-family="'AdobeSongStd-Light-GBpc-EUC-H'" font-size="12">CODE3114-U16-1-0-12_Elac_WiFi_Amplifier_630378.hex</text>
<g>
	<path fill="#FFFFFF" d="M-8.099,6.341c-0.3,0-0.522-0.321-0.666-0.965c-0.067-0.305-0.134-0.488-0.2-0.549
		C-9.015,4.78-9.147,4.756-9.36,4.756c-0.42,0-0.906,0.664-1.457,1.992c-0.771,1.856-1.156,3.593-1.156,5.212
		c0,0.738,0.122,1.372,0.365,1.9s0.536,0.792,0.876,0.792c0.331,0,0.666-0.176,1.006-0.528c0.12-0.128,0.374-0.46,0.761-0.995
		c0.26-0.353,0.457-0.528,0.59-0.528c0.2,0,0.371,0.148,0.511,0.447c0.13,0.277,0.195,0.596,0.195,0.955
		c0,0.399-0.087,0.748-0.26,1.046c-0.918,1.571-1.852,2.357-2.803,2.357c-0.751,0-1.385-0.556-1.902-1.666
		c-0.494-1.07-0.741-2.33-0.741-3.78c0-2.269,0.489-4.585,1.466-6.95c0.831-2.005,1.68-3.007,2.548-3.007
		c0.146,0,0.279,0.01,0.398,0.031c0.118,0.02,0.223,0.051,0.313,0.091c0.147-0.291,0.324-0.437,0.531-0.437
		c0.34,0,0.551,0.396,0.631,1.189c0.057,0.569,0.085,1.233,0.085,1.991c0,0.339-0.048,0.647-0.145,0.925
		C-7.675,6.159-7.859,6.341-8.099,6.341z"/>
	<path fill="#FFFFFF" d="M-3.349,17.782c-0.988,0-1.829-0.576-2.522-1.728c-0.741-1.232-1.111-2.828-1.111-4.786
		c0-2.303,0.355-4.402,1.066-6.299c0.797-2.133,1.802-3.2,3.013-3.2c1.165,0,2.037,0.542,2.618,1.625
		c0.581,1.084,0.871,2.713,0.871,4.887c0,2.303-0.327,4.39-0.981,6.259C-1.15,16.702-2.134,17.782-3.349,17.782z M-2.903,4.523
		c-0.744,0-1.382,0.731-1.912,2.194c-0.498,1.369-0.746,2.886-0.746,4.552c0,1.125,0.215,2.04,0.646,2.744
		c0.414,0.678,0.936,1.016,1.566,1.016c0.734,0,1.347-0.731,1.837-2.194c0.451-1.334,0.676-2.852,0.676-4.552
		c0-1.422-0.157-2.412-0.47-2.967C-1.607,4.787-2.14,4.523-2.903,4.523z"/>
	<path fill="#FFFFFF" d="M2.312,17.264c-0.197-0.007-0.362-0.144-0.496-0.411s-0.2-0.591-0.2-0.971c0-0.677,0.016-1.693,0.047-3.048
		c0.032-1.355,0.048-2.371,0.048-3.048c0-0.752-0.008-1.879-0.022-3.383C1.674,4.899,1.666,3.771,1.666,3.019
		c0-0.373,0.088-0.743,0.266-1.112c0.177-0.369,0.365-0.554,0.565-0.554c0.11,0,0.387,0.21,0.831,0.63
		c0.517,0.501,0.824,0.782,0.921,0.843C5.227,3.47,6.061,4.465,6.751,5.813c0.824,1.605,1.236,3.38,1.236,5.324
		c0,1.172-0.142,2.287-0.425,3.343c-0.284,1.076-0.672,1.94-1.166,2.591c-0.554,0.73-1.333,1.097-2.338,1.097
		c-0.244,0-0.524-0.071-0.841-0.213C2.834,17.778,2.532,17.548,2.312,17.264z M5.125,6.819C4.801,6.406,4.107,5.756,3.042,4.868
		v10.059c0.13,0.17,0.28,0.297,0.448,0.382c0.168,0.084,0.356,0.127,0.563,0.127c0.721,0,1.238-0.204,1.552-0.61
		c0.297-0.386,0.533-0.91,0.708-1.574c0.175-0.664,0.263-1.355,0.263-2.073C6.577,9.498,6.093,8.045,5.125,6.819z"/>
	<path fill="#FFFFFF" d="M13.85,4.137c-0.067,0-0.138-0.021-0.211-0.061c-0.54-0.298-1.065-0.447-1.576-0.447
		c-0.25,0-0.519,0.041-0.806,0.122c-0.287,0.082-0.592,0.203-0.916,0.366c0,0.901-0.015,2.239-0.045,4.014
		c0.187-0.027,0.839-0.153,1.957-0.376c0.637-0.129,1.042-0.193,1.211-0.193c0.197,0,0.365,0.127,0.506,0.381
		c0.14,0.254,0.21,0.591,0.21,1.011c0,0.806-0.212,1.263-0.636,1.372c-0.267,0.041-0.666,0.108-1.196,0.203
		c-0.474,0.108-1.188,0.241-2.142,0.396c-0.023,0.86-0.035,1.554-0.035,2.083c0,1.328,0.038,2.083,0.115,2.266
		c0.037,0.088,0.247,0.132,0.63,0.132c0.207,0,0.519-0.01,0.936-0.03s0.729-0.03,0.936-0.03c0.066,0,0.165-0.021,0.295-0.062
		c0.131-0.04,0.228-0.061,0.291-0.061c0.193,0,0.358,0.112,0.495,0.335c0.157,0.251,0.235,0.604,0.235,1.057
		c0,0.759-0.195,1.213-0.586,1.361c-0.333,0.129-1.026,0.193-2.077,0.193c-1.088,0-1.797-0.298-2.127-0.894
		c-0.364-0.657-0.545-2.08-0.545-4.268c0-0.908,0.032-2.271,0.097-4.09c0.065-1.818,0.098-3.178,0.098-4.079
		c0-0.237-0.017-0.588-0.05-1.052c-0.034-0.464-0.05-0.814-0.05-1.052c0-1.029,0.234-1.544,0.701-1.544
		c0.147,0,0.282,0.084,0.406,0.254c0.387-0.196,0.755-0.344,1.104-0.442s0.678-0.147,0.989-0.147c0.841,0,1.513,0.196,2.017,0.589
		c0.308,0.237,0.461,0.667,0.461,1.29c0,0.353-0.061,0.664-0.181,0.935C14.227,3.981,14.056,4.137,13.85,4.137z"/>
</g>
</svg>
