<?xml version="1.0" encoding="utf-8"?>
<!-- Generator: Adobe Illustrator 16.0.0, SVG Export Plug-In . SVG Version: 6.00 Build 0)  -->
<!DOCTYPE svg PUBLIC "-//W3C//DTD SVG 1.1//EN" "http://www.w3.org/Graphics/SVG/1.1/DTD/svg11.dtd">
<svg version="1.1" id="Layer_1" xmlns="http://www.w3.org/2000/svg" xmlns:xlink="http://www.w3.org/1999/xlink" x="0px" y="0px"
	 width="24px" height="24px" viewBox="0 0 24 24" enable-background="new 0 0 24 24" xml:space="preserve">
<g>
	<path fill="#FFFFFF" d="M7.741,18.191c-0.359,0-0.672-0.589-0.938-1.765c-0.102-0.449-0.229-1.234-0.381-2.355
		c-0.398,0.069-0.92,0.194-1.564,0.373l-1.559,0.412C3.104,15.51,2.77,16.464,2.297,17.72c-0.125,0.279-0.295,0.419-0.51,0.419
		c-0.156,0-0.296-0.072-0.419-0.217s-0.185-0.324-0.185-0.538c0-0.239,0.295-1.149,0.885-2.729c-0.066-0.13-0.1-0.279-0.1-0.449
		c0-0.403,0.191-0.662,0.574-0.777c0.445-1.066,1.008-2.292,1.688-3.679C5.157,7.86,5.733,6.916,5.959,6.916
		c0.309,0,0.52,0.274,0.633,0.822l0.369,2.512l0.873,5.196l0.334,1.182c0.113,0.404,0.17,0.674,0.17,0.808
		c0,0.215-0.061,0.395-0.182,0.539S7.897,18.191,7.741,18.191z M5.672,9.645l-1.676,3.447c0.473-0.155,1.189-0.342,2.15-0.562
		L5.672,9.645z"/>
	<path fill="#FFFFFF" d="M11.614,13.577c-0.109,0-0.348-0.032-0.715-0.097c-0.031,0.753-0.047,2.071-0.047,3.955
		c0,0.2-0.051,0.368-0.152,0.505c-0.102,0.138-0.229,0.206-0.381,0.206c-0.156,0-0.285-0.068-0.387-0.206
		c-0.102-0.137-0.152-0.305-0.152-0.505v-2.198c0-0.732,0.035-1.765,0.105-3.095c0.078-1.441,0.121-2.473,0.129-3.096V8.015
		c0-0.494,0.023-0.853,0.07-1.077c0.09-0.439,0.281-0.628,0.574-0.568c0.125-0.05,0.303-0.087,0.533-0.112s0.514-0.038,0.85-0.038
		c0.714,0,1.384,0.312,2.009,0.935c0.688,0.688,1.031,1.515,1.031,2.482c0,1.236-0.367,2.221-1.102,2.954
		C13.324,13.248,12.535,13.577,11.614,13.577z M11.907,7.641c-0.172,0-0.325,0.005-0.46,0.015c-0.135,0.01-0.249,0.025-0.343,0.044
		l-0.012,1.376l-0.123,2.976l0.645,0.097c0.656,0,1.208-0.212,1.658-0.636c0.492-0.463,0.738-1.089,0.738-1.876
		c0-0.559-0.234-1.04-0.703-1.443C12.873,7.825,12.407,7.641,11.907,7.641z"/>
	<path fill="#FFFFFF" d="M22.195,18.273c-0.594,0-1.439-0.666-2.537-1.996l-1.752-2.251v0.104L17.9,18.049
		c0,0.494-0.17,0.74-0.51,0.74c-0.223,0-0.4-0.124-0.533-0.374c-0.109-0.204-0.164-0.426-0.164-0.665
		c0-1.167,0.027-2.911,0.082-5.234c0.055-2.323,0.082-4.065,0.082-5.227c0-0.214,0.056-0.396,0.167-0.546
		c0.111-0.149,0.249-0.224,0.413-0.224c0.168,0,0.308,0.075,0.419,0.224c0.111,0.15,0.167,0.332,0.167,0.546
		c0,0.484-0.023,1.236-0.07,2.258c-0.047,0.987-0.068,1.742-0.064,2.266c0.523-0.633,1.115-1.428,1.775-2.385l1.682-2.49
		c0.133-0.195,0.281-0.292,0.445-0.292c0.156,0,0.295,0.075,0.416,0.225c0.121,0.149,0.182,0.332,0.182,0.546
		c0,0.329-0.504,1.206-1.512,2.632c-0.695,0.972-1.414,1.924-2.156,2.856c0.469,0.628,1.203,1.53,2.203,2.707l0.615,0.658
		c0.223,0.22,0.463,0.384,0.721,0.493c0.309,0.13,0.463,0.377,0.463,0.74c0,0.17-0.041,0.332-0.123,0.486
		C22.498,18.179,22.363,18.273,22.195,18.273z"/>
</g>
</svg>
