<?xml version="1.0" encoding="utf-8"?>
<!-- Generator: Adobe Illustrator 16.0.0, SVG Export Plug-In . SVG Version: 6.00 Build 0)  -->
<!DOCTYPE svg PUBLIC "-//W3C//DTD SVG 1.1//EN" "http://www.w3.org/Graphics/SVG/1.1/DTD/svg11.dtd">
<svg version="1.1" id="Layer_1" xmlns="http://www.w3.org/2000/svg" xmlns:xlink="http://www.w3.org/1999/xlink" x="0px" y="0px"
	 width="24px" height="24px" viewBox="0 0 24 24" enable-background="new 0 0 24 24" xml:space="preserve">
<text transform="matrix(1 0 0 1 420.9453 297.6406)" font-family="'AdobeSongStd-Light-GBpc-EUC-H'" font-size="12">cd-icon-picture</text>
<g>
	<path fill="#FFFFFF" d="M11.628,19.383c-0.54,0-1.009-0.692-1.409-2.077c-0.152-0.528-0.343-1.452-0.572-2.772
		c-0.599,0.082-1.382,0.229-2.351,0.439l-2.341,0.484c-0.293,0.77-0.795,1.893-1.505,3.372c-0.188,0.328-0.443,0.492-0.766,0.492
		c-0.235,0-0.445-0.085-0.629-0.255c-0.185-0.17-0.277-0.382-0.277-0.634c0-0.282,0.443-1.353,1.329-3.213
		c-0.1-0.152-0.15-0.329-0.15-0.528c0-0.476,0.288-0.78,0.863-0.915c0.669-1.256,1.514-2.7,2.535-4.332
		c1.391-2.224,2.256-3.336,2.597-3.336c0.464,0,0.781,0.323,0.951,0.968l0.555,2.958l1.312,6.118l0.502,1.392
		c0.17,0.475,0.255,0.792,0.255,0.95c0,0.252-0.091,0.464-0.273,0.634C12.071,19.298,11.863,19.383,11.628,19.383z M8.521,9.322
		L6.003,13.38c0.71-0.182,1.787-0.401,3.23-0.66L8.521,9.322z"/>
	<path fill="#FFFFFF" d="M17.447,13.952c-0.165,0-0.522-0.038-1.074-0.114c-0.047,0.886-0.07,2.438-0.07,4.656
		c0,0.234-0.076,0.433-0.229,0.594c-0.153,0.162-0.344,0.242-0.572,0.242c-0.235,0-0.429-0.08-0.581-0.242
		c-0.153-0.161-0.229-0.359-0.229-0.594v-2.588c0-0.862,0.053-2.077,0.159-3.645c0.117-1.696,0.182-2.911,0.193-3.644V7.403
		c0-0.581,0.035-1.003,0.105-1.268c0.135-0.517,0.423-0.739,0.862-0.669c0.188-0.059,0.455-0.103,0.802-0.132
		c0.346-0.029,0.771-0.044,1.276-0.044c1.073,0,2.08,0.367,3.02,1.101c1.032,0.81,1.549,1.784,1.549,2.922
		c0,1.456-0.552,2.614-1.655,3.477C20.018,13.564,18.832,13.952,17.447,13.952z M17.887,6.962c-0.258,0-0.488,0.006-0.69,0.018
		s-0.374,0.029-0.515,0.053l-0.018,1.62l-0.186,3.503l0.969,0.114c0.985,0,1.816-0.249,2.491-0.748
		c0.739-0.546,1.108-1.282,1.108-2.209c0-0.657-0.352-1.224-1.056-1.699C19.34,7.18,18.639,6.962,17.887,6.962z"/>
</g>
</svg>
