<?xml version="1.0" encoding="utf-8"?>
<!-- Generator: Adobe Illustrator 16.0.0, SVG Export Plug-In . SVG Version: 6.00 Build 0)  -->
<!DOCTYPE svg PUBLIC "-//W3C//DTD SVG 1.1//EN" "http://www.w3.org/Graphics/SVG/1.1/DTD/svg11.dtd">
<svg version="1.1" id="Layer_1" xmlns="http://www.w3.org/2000/svg" xmlns:xlink="http://www.w3.org/1999/xlink" x="0px" y="0px"
	 width="28.459px" height="28.459px" viewBox="0 0 28.459 28.459" enable-background="new 0 0 28.459 28.459" xml:space="preserve">
<path fill="#FFFFFF" d="M5.548,21.851c-0.91,0.641-2.061,0.961-3.451,0.961c-0.234,0-0.444-0.186-0.63-0.554
	s-0.278-0.762-0.278-1.182V9.365C1.177,8.864,1.168,8.363,1.16,7.862C1.148,7.295,1.158,6.816,1.189,6.426
	c0.055-0.692,0.396-1.112,1.025-1.26c0.297-0.162,0.789-0.243,1.477-0.243c0.738,0,1.445,0.449,2.121,1.348
	c0.793,1.046,1.189,2.354,1.189,3.922c0,0.847-0.082,1.562-0.246,2.144c-0.129,0.471-0.354,0.976-0.674,1.514
	c0.379,0.346,0.715,0.869,1.008,1.569c0.332,0.781,0.498,1.558,0.498,2.332c0,0.979-0.283,1.907-0.85,2.783
	C6.358,21.116,5.962,21.555,5.548,21.851z M3.69,7.917c-0.504,0-0.807,0.008-0.908,0.022l0.006,2.342l-0.006,2.32
	c0.355,0.081,0.623,0.107,0.803,0.077c1.195-0.177,1.793-1.005,1.793-2.486c0-0.523-0.176-1.027-0.527-1.514
	C4.487,8.171,4.1,7.917,3.69,7.917z M4.376,15.729c-0.355,0-0.887-0.026-1.594-0.078v4.132c0.672-0.066,1.4-0.31,2.186-0.729
	c0.688-0.367,1.027-0.765,1.02-1.191c-0.012-0.567-0.232-1.072-0.662-1.514C4.989,15.994,4.673,15.788,4.376,15.729z M12.538,22.954
	c-1.156,0-2.141-0.626-2.953-1.878c-0.867-1.341-1.301-3.074-1.301-5.204c0-2.504,0.416-4.788,1.248-6.851
	c0.934-2.32,2.109-3.48,3.527-3.48c1.364,0,2.385,0.589,3.064,1.768c0.68,1.179,1.02,2.95,1.02,5.314
	c0,2.504-0.383,4.772-1.147,6.806C15.112,21.778,13.96,22.954,12.538,22.954z M13.059,8.536c-0.871,0-1.617,0.795-2.238,2.386
	c-0.582,1.489-0.873,3.139-0.873,4.951c0,1.223,0.252,2.217,0.756,2.983c0.484,0.735,1.096,1.104,1.834,1.104
	c0.859,0,1.576-0.796,2.15-2.387c0.527-1.45,0.791-3.1,0.791-4.949c0-1.547-0.185-2.622-0.551-3.226
	C14.577,8.823,13.954,8.536,13.059,8.536z M20.612,13.552c-0.177,1.193-0.423,2.994-0.738,5.403
	c-0.073,0.832-0.146,1.659-0.217,2.485c-0.16,1.045-0.455,1.568-0.886,1.568c-0.27,0-0.481-0.174-0.639-0.52
	c-0.133-0.295-0.199-0.646-0.199-1.051c0-1.192,0.136-2.646,0.404-4.362c0.403-2.57,0.62-3.995,0.651-4.275
	c0.112-1.134,0.229-2.269,0.346-3.403c0.177-1.562,0.366-2.602,0.571-3.122s0.464-0.779,0.775-0.779
	c0.355,0,0.617,0.339,0.785,1.017c0.156,0.641,0.324,1.952,0.506,3.933c0.17,1.923,0.428,3.993,0.768,6.21
	c0.445-2.188,0.857-4.589,1.242-7.204l0.328-2.542c0.211-1.053,0.535-1.58,0.979-1.58c0.426,0,0.741,0.611,0.949,1.834
	c0.085,0.493,0.177,1.414,0.275,2.762c0.227,3.138,0.512,5.827,0.854,8.066c0.349,2.275,0.521,3.513,0.521,3.712
	c0,0.435-0.092,0.799-0.274,1.094c-0.172,0.265-0.365,0.397-0.58,0.397c-0.426,0-0.743-0.574-0.949-1.725l-0.327-2.674
	c-0.188-1.324-0.393-3.229-0.609-5.711c-0.176,0.987-0.469,2.538-0.873,4.652l-0.352,2.033c-0.146,0.804-0.297,1.463-0.451,1.979
	c-0.209,0.686-0.498,1.027-0.867,1.027c-0.368,0-0.649-0.409-0.844-1.228l-0.33-2.055C21.128,17.61,20.854,15.629,20.612,13.552z"/>
</svg>
