<?xml version="1.0" encoding="utf-8"?>
<!-- Generator: Adobe Illustrator 16.0.0, SVG Export Plug-In . SVG Version: 6.00 Build 0)  -->
<!DOCTYPE svg PUBLIC "-//W3C//DTD SVG 1.1//EN" "http://www.w3.org/Graphics/SVG/1.1/DTD/svg11.dtd">
<svg version="1.1" id="Layer_1" xmlns="http://www.w3.org/2000/svg" xmlns:xlink="http://www.w3.org/1999/xlink" x="0px" y="0px"
	 width="28.459px" height="28.459px" viewBox="0 0 28.459 28.459" enable-background="new 0 0 28.459 28.459" xml:space="preserve">
<text transform="matrix(1 0 0 1 407.3203 293.1816)" font-family="'ArialMT'" font-size="12">CODE3114-U16-1-0-12_Elac_WiFi_Amplifier_630378.hex</text>
<g>
	<path fill="#FFFFFF" d="M3.109,7.744h3.403c1.151,0,2.031,0.289,2.64,0.865c0.642,0.588,0.963,1.454,0.963,2.596
		c0,1.154-0.354,2.025-1.063,2.613C8.377,14.406,7.403,14.7,6.131,14.7H4.222v5.296H3.109V7.744z M6.147,13.688
		c0.907,0,1.594-0.188,2.059-0.566c0.509-0.422,0.764-1.072,0.764-1.949c0-0.822-0.222-1.432-0.664-1.832
		C7.885,8.951,7.271,8.757,6.463,8.757H4.222v4.931H6.147z"/>
	<path fill="#FFFFFF" d="M14.415,7.744c1.229,0,2.23,0.521,3.005,1.563c0.808,1.108,1.212,2.622,1.212,4.539
		c0,1.961-0.404,3.492-1.212,4.588c-0.764,1.042-1.766,1.563-3.005,1.563h-2.938V7.744h2.689H14.415z M14.133,18.983
		c1.073,0,1.887-0.41,2.44-1.23c0.598-0.865,0.896-2.156,0.896-3.875c0-1.685-0.299-2.965-0.896-3.841
		c-0.575-0.854-1.389-1.28-2.44-1.28h-1.544v10.227H14.133z"/>
	<path fill="#FFFFFF" d="M20.043,7.744H26.7v1.013h-5.545v4.433h4.931v1.013h-4.931v5.794h-1.112V7.744z"/>
</g>
</svg>
